<?xml version="1.0" standalone="no"?>
<!DOCTYPE svg PUBLIC "-//W3C//DTD SVG 20010904//EN"
 "http://www.w3.org/TR/2001/REC-SVG-20010904/DTD/svg10.dtd">
<svg version="1.0" xmlns="http://www.w3.org/2000/svg"
 width="965.000000pt" height="965.000000pt" viewBox="0 0 965.000000 965.000000"
 preserveAspectRatio="xMidYMid meet">
<metadata>
Created by potrace 1.11, written by Peter Selinger 2001-2013
</metadata>
<g transform="translate(0.000000,965.000000) scale(0.100000,-0.100000)"
fill="#000000" stroke="none">
<path d="M4726 7663 c-60 -120 -115 -226 -124 -235 -24 -28 -49 -22 -154 38
-54 31 -101 54 -103 52 -6 -5 18 -170 75 -513 22 -132 37 -250 34 -263 -13
-45 -46 -19 -200 153 -84 94 -159 171 -167 173 -10 2 -21 -22 -37 -84 -13 -47
-31 -95 -40 -106 -16 -20 -16 -20 -115 2 -55 11 -129 28 -165 36 -101 24 -120
27 -120 17 0 -14 38 -186 71 -317 35 -145 36 -176 6 -204 -38 -36 -89 -50
-238 -67 -79 -8 -272 -31 -429 -49 -157 -19 -334 -40 -395 -46 -60 -6 -265
-28 -455 -50 -312 -35 -662 -74 -780 -86 -121 -13 -285 -35 -289 -39 -2 -3
1683 -5 3745 -4 2062 1 3733 5 3714 9 -31 8 -554 68 -730 85 -36 3 -216 23
-400 45 -184 21 -366 41 -405 44 -38 4 -92 9 -120 12 -27 3 -66 7 -85 9 -19 2
-143 17 -275 33 -132 17 -287 35 -345 42 -132 15 -197 41 -216 87 -13 30 -12
44 17 156 17 67 41 173 54 235 l23 114 -27 -5 c-14 -2 -98 -21 -185 -41 -88
-20 -167 -34 -177 -31 -13 4 -26 33 -44 93 -14 48 -28 93 -30 100 -6 16 -32
15 -42 -2 -4 -7 -40 -49 -80 -92 -39 -44 -92 -104 -118 -134 -55 -65 -105
-110 -121 -110 -6 0 -14 10 -18 23 -4 18 16 185 38 317 42 238 71 449 63 456
-3 3 -50 -19 -103 -50 -102 -58 -126 -65 -149 -43 -7 8 -63 113 -124 235 -62
122 -115 222 -120 222 -4 0 -56 -98 -115 -217z"/>
<path d="M1487 5669 c-203 -21 -370 -71 -572 -169 -214 -104 -386 -237 -528
-408 -164 -198 -283 -464 -323 -722 -17 -113 -19 -406 -4 -541 36 -318 196
-654 420 -880 251 -253 545 -397 910 -445 157 -20 476 -15 620 11 314 56 600
212 894 486 54 51 67 68 60 81 -14 25 -375 398 -385 398 -5 0 -48 -37 -97 -81
-269 -251 -548 -362 -867 -345 -245 12 -451 88 -620 226 -136 111 -220 225
-285 388 -52 130 -71 221 -75 372 -9 319 81 556 291 766 143 143 279 221 482
276 95 25 360 31 457 9 161 -36 332 -111 465 -203 71 -50 230 -188 230 -200 0
-27 50 8 147 102 60 58 148 143 196 189 l87 83 -35 43 c-65 79 -197 193 -315
271 -342 229 -760 335 -1153 293z"/>
<path d="M8128 5669 c-291 -31 -550 -127 -798 -298 -116 -80 -297 -258 -372
-366 -135 -195 -214 -393 -254 -635 -24 -145 -24 -434 1 -590 87 -563 474
-1024 1008 -1204 59 -20 129 -41 155 -47 163 -37 472 -50 670 -29 323 35 602
160 881 393 106 89 191 168 191 179 0 4 -12 20 -27 36 -16 16 -102 106 -192
200 -90 95 -168 172 -173 172 -6 0 -46 -34 -90 -75 -162 -152 -354 -269 -512
-310 -292 -77 -576 -50 -815 77 -326 173 -504 457 -527 844 -11 188 19 357 91
511 114 243 343 446 595 528 407 131 845 16 1180 -311 36 -35 71 -64 78 -64 6
0 67 53 134 118 68 64 155 148 195 186 40 38 73 74 73 80 -1 6 -22 34 -48 62
-354 385 -922 599 -1444 543z"/>
<path d="M3545 5596 c-5 -14 -58 -317 -80 -451 -9 -55 -29 -170 -44 -255 -27
-144 -43 -241 -56 -332 -2 -21 -10 -59 -16 -85 -5 -27 -26 -140 -45 -253 -19
-113 -50 -293 -68 -400 -45 -252 -119 -681 -146 -840 -12 -69 -33 -188 -46
-265 -13 -76 -20 -143 -16 -147 5 -5 134 -7 287 -6 l278 3 33 190 c17 105 48
287 68 405 20 118 50 285 66 370 16 85 32 175 35 200 4 25 24 142 45 260 21
118 46 265 56 325 9 61 18 111 19 113 2 2 44 -124 95 -280 50 -156 109 -335
130 -398 39 -117 58 -177 240 -740 56 -173 114 -348 127 -387 l26 -73 278 0
279 0 14 33 c8 17 60 174 116 347 102 317 162 502 250 770 26 80 90 275 141
433 64 199 96 283 101 270 4 -10 14 -61 22 -113 8 -52 33 -203 56 -335 70
-408 149 -873 176 -1035 14 -85 33 -200 43 -255 l17 -100 282 -3 282 -2 0 23
c0 12 -14 101 -30 197 -17 96 -41 245 -55 330 -14 85 -34 205 -44 265 -56 327
-139 819 -151 895 -6 41 -27 163 -45 270 -19 107 -66 389 -106 625 -39 237
-73 432 -76 435 -2 3 -131 5 -286 5 l-282 0 -36 -105 c-41 -119 -198 -591
-210 -630 -4 -14 -26 -77 -47 -140 -22 -63 -49 -142 -59 -175 -144 -445 -351
-1047 -353 -1025 0 3 -144 435 -321 960 -176 525 -330 987 -341 1025 -12 39
-25 75 -30 81 -12 17 -568 17 -573 0z"/>
</g>
</svg>
