<?xml version="1.0" standalone="no"?>
<!DOCTYPE svg PUBLIC "-//W3C//DTD SVG 20010904//EN"
 "http://www.w3.org/TR/2001/REC-SVG-20010904/DTD/svg10.dtd">
<svg version="1.0" xmlns="http://www.w3.org/2000/svg"
 width="965.000000pt" height="965.000000pt" viewBox="0 0 965.000000 965.000000"
 preserveAspectRatio="xMidYMid meet">
<metadata>
Created by potrace 1.11, written by Peter Selinger 2001-2013
</metadata>
<g transform="translate(0.000000,965.000000) scale(0.100000,-0.100000)"
fill="#000000" stroke="none">
<path d="M4656 7863 c10 -25 12 -126 1 -140 -5 -7 -10 -43 -11 -80 -2 -68 -2
-68 -40 -89 -24 -13 -49 -20 -66 -17 -16 2 -31 -1 -35 -6 -4 -7 -14 -6 -28 4
-29 18 -114 25 -134 10 -20 -15 -25 -167 -8 -230 6 -22 8 -51 4 -65 -4 -14 -4
-48 -2 -76 3 -28 0 -68 -6 -87 -7 -20 -14 -51 -17 -69 -2 -18 -8 -34 -14 -36
-5 -2 -10 -10 -10 -18 0 -17 -16 -19 -26 -2 -5 7 -2 9 7 4 8 -4 -1 6 -20 23
-19 16 -37 30 -40 29 -23 -2 -51 3 -47 10 2 4 -2 16 -9 26 -10 14 -27 19 -63
19 -64 1 -82 -16 -82 -81 0 -79 -13 -85 -162 -77 -67 3 -129 6 -136 7 -21 2
-43 43 -45 82 -1 20 -7 38 -14 40 -7 3 -10 -1 -7 -9 3 -8 -5 -25 -19 -39 -14
-14 -24 -26 -22 -28 4 -5 -60 -62 -65 -58 -3 3 -6 -3 -8 -12 -2 -10 2 -18 8
-18 9 0 9 -5 -1 -17 -11 -15 -10 -14 9 1 22 19 22 19 24 0 0 -10 2 -26 2 -34
1 -8 -6 -21 -16 -28 -17 -12 -20 -44 -5 -58 10 -10 9 -74 -1 -74 -11 0 -9 -46
2 -57 5 -5 6 0 3 12 -6 17 -5 18 5 5 7 -8 27 -15 43 -15 34 0 54 -15 60 -46 2
-11 7 -30 11 -42 13 -37 12 -67 -3 -78 -13 -11 -85 -23 -128 -21 -154 7 -181
5 -218 -15 -29 -16 -45 -19 -68 -13 -16 5 -29 6 -29 2 0 -4 -4 -2 -8 4 -12 18
-64 31 -119 28 -61 -3 -73 -8 -73 -34 0 -10 -5 -22 -12 -26 -7 -5 -9 -2 -4 7
4 8 1 6 -7 -4 -8 -9 -30 -22 -48 -29 -19 -6 -47 -24 -62 -40 -16 -15 -32 -29
-35 -29 -9 -2 -170 -9 -237 -11 -27 0 -66 0 -85 1 -30 1 -117 -3 -210 -11 -14
-1 -45 2 -70 7 -54 10 -301 11 -350 1 -19 -4 -40 -12 -46 -17 -8 -7 -23 -4
-46 8 -26 14 -53 18 -118 16 -47 -1 -94 -4 -105 -7 -11 -2 -23 -5 -26 -5 -4
-1 -6 -11 -5 -22 0 -12 -8 -27 -19 -33 -11 -6 -42 -29 -69 -51 l-50 -39 -133
-2 c-158 -2 -219 -10 -227 -29 -3 -8 -2 -16 2 -19 68 -40 89 -47 135 -45 40 2
54 -2 75 -20 21 -19 34 -22 76 -18 28 2 69 -1 91 -7 56 -16 6718 -14 6756 2
15 6 29 9 30 7 2 -2 24 -6 47 -10 34 -5 47 -3 55 10 8 10 34 17 82 20 39 3 84
6 100 8 32 4 69 -9 61 -22 -3 -4 6 -7 19 -7 13 0 21 4 19 8 -3 4 -1 8 4 8 5 0
8 23 8 52 -1 56 -18 71 -66 59 -14 -4 -36 -6 -50 -4 -14 1 -60 4 -104 7 -75 4
-88 9 -99 41 -2 6 -14 5 -30 -4 -21 -11 -31 -12 -56 -1 -17 7 -28 16 -25 21 3
5 0 9 -5 9 -6 0 -10 4 -8 9 1 6 -7 23 -17 40 -16 23 -26 29 -50 27 -17 -2 -47
2 -66 9 -24 7 -115 10 -285 7 -137 -1 -263 -3 -280 -3 -16 0 -50 0 -75 -1
-210 -2 -645 8 -658 15 -7 5 -19 24 -27 44 -12 29 -65 93 -65 78 0 -2 -16 4
-35 14 -30 14 -62 17 -208 15 -94 -1 -183 -7 -197 -12 -22 -8 -125 10 -140 24
-8 8 -12 201 -9 459 1 85 0 95 -16 95 -16 0 -19 10 -7 26 4 5 -1 1 -10 -9 -10
-11 -18 -15 -18 -11 0 5 -4 5 -8 -1 -4 -5 -24 -18 -45 -27 -20 -10 -36 -21
-35 -25 0 -5 -2 -16 -6 -25 -7 -15 -20 -18 -82 -16 -85 2 -86 4 -90 91 -1 32
-5 61 -8 64 -6 7 -159 11 -198 5 -15 -2 -26 -8 -23 -12 3 -5 1 -11 -5 -15 -6
-4 -8 -10 -6 -14 3 -4 -11 -13 -30 -20 -18 -7 -34 -18 -35 -24 -4 -64 -20 -77
-89 -74 -81 4 -89 13 -85 97 2 42 9 77 19 91 9 13 16 19 16 14 0 -6 4 -4 9 4
5 7 19 14 32 15 13 0 24 6 25 11 2 26 17 42 33 38 19 -5 21 1 21 81 0 27 -6
56 -13 65 -10 12 -9 13 1 7 10 -6 12 0 10 25 -3 25 -10 35 -29 40 -13 4 -18 7
-11 8 10 1 9 8 -3 31 -16 30 -16 64 -2 87 11 18 -27 26 -143 29 -58 1 -110 2
-116 3 -15 1 -31 42 -28 71 10 77 10 75 -16 77 -103 7 -129 20 -131 62 0 9 -2
27 -5 40 -2 13 3 35 11 48 l15 23 -161 0 c-150 0 -161 -1 -153 -17z m761 -479
c-3 -3 -12 -4 -19 -1 -8 3 -5 6 6 6 11 1 17 -2 13 -5z m-14 -20 c-9 -4 -9 -13
-2 -31 14 -36 7 -83 -13 -94 -14 -7 -18 -6 -18 6 0 8 -4 15 -9 15 -12 0 -2 63
11 71 5 3 9 9 9 13 -3 20 1 26 17 25 9 0 12 -3 5 -5z"/>
<path d="M5456 7054 c-3 -8 -1 -14 4 -14 5 0 8 -6 6 -12 -1 -7 -1 -10 1 -5 3
4 10 4 16 0 8 -4 7 -1 -1 9 -10 13 -10 17 0 20 8 3 7 6 -4 11 -10 3 -19 0 -22
-9z"/>
<path d="M8584 5792 c-13 -10 -11 -36 4 -54 10 -13 9 -17 -10 -21 -34 -9 -98
1 -115 18 -8 8 -11 15 -6 16 4 0 -1 4 -11 8 -11 4 -41 6 -68 5 -26 -1 -48 2
-48 7 0 5 -11 4 -24 -1 -13 -5 -27 -6 -30 -3 -8 8 -96 11 -96 3 0 -3 -34 -5
-76 -5 -71 1 -103 -9 -104 -33 -1 -4 -18 -27 -40 -51 l-38 -44 -109 -3 c-104
-3 -109 -4 -130 -30 -12 -15 -30 -30 -40 -32 -38 -9 -78 -9 -90 0 -13 10 -22
0 -28 -34 -8 -40 -39 -60 -96 -64 -30 -1 -56 -4 -59 -5 -3 -1 -9 -1 -13 0 -5
1 -6 -12 -2 -28 5 -24 2 -32 -15 -41 -18 -9 -26 -8 -43 7 -11 10 -18 13 -14 7
3 -6 -3 -17 -14 -24 -10 -8 -19 -18 -19 -23 0 -13 -22 -31 -62 -50 -20 -10
-47 -30 -60 -45 -13 -15 -35 -34 -49 -41 -17 -9 -29 -24 -33 -45 -4 -17 -22
-44 -41 -62 -27 -24 -35 -39 -37 -70 -3 -45 -12 -54 -50 -54 -18 0 -28 -6 -29
-15 -7 -83 -20 -124 -41 -131 -11 -3 -26 -20 -33 -37 -14 -32 -35 -58 -68 -81
-16 -10 -19 -27 -20 -109 -2 -95 -2 -97 -29 -108 -16 -6 -29 -15 -29 -20 -2
-11 -6 -62 -8 -90 0 -11 -15 -33 -32 -48 -24 -23 -31 -37 -33 -74 -1 -26 2
-49 8 -51 6 -3 6 -5 -2 -5 -10 -1 -10 -6 -2 -21 6 -11 8 -20 4 -20 -3 0 -2 -6
5 -13 8 -10 7 -17 -2 -27 -10 -10 -8 -12 7 -6 16 5 17 4 6 -9 -7 -8 -10 -24
-7 -35 3 -11 1 -23 -4 -26 -5 -3 -7 -9 -4 -14 3 -5 -2 -15 -10 -24 -25 -25
-21 -157 4 -141 20 12 46 -25 48 -66 2 -43 -19 -74 -42 -61 -5 3 4 -8 20 -25
17 -16 33 -28 38 -26 4 2 7 -1 7 -8 0 -7 12 -26 27 -42 26 -27 28 -33 29 -134
1 -58 7 -108 12 -112 52 -33 69 -54 68 -84 -1 -25 8 -41 42 -73 30 -30 42 -50
42 -71 0 -16 5 -34 12 -41 9 -9 9 -18 -1 -38 -13 -30 -9 -39 15 -30 13 5 14 9
5 20 -7 9 -8 17 -3 20 6 3 12 -1 16 -9 3 -8 11 -15 19 -15 7 0 21 -13 30 -30
10 -16 15 -30 10 -30 -4 0 5 -11 21 -25 21 -18 27 -30 23 -46 -5 -17 2 -29 26
-50 l32 -28 -23 -24 c-13 -14 -21 -34 -20 -49 2 -23 5 -25 25 -15 13 6 23 13
23 17 0 11 46 29 66 26 14 -2 20 -13 22 -39 2 -21 9 -37 15 -38 81 -6 101 -9
109 -17 6 -6 17 -8 24 -5 8 3 15 -2 15 -11 1 -9 2 -20 3 -26 2 -16 24 -33 48
-35 37 -4 38 -4 38 -19 0 -30 28 -44 79 -41 41 2 59 -2 96 -26 25 -16 55 -45
66 -64 12 -19 23 -35 26 -35 3 0 20 8 37 18 46 27 76 23 102 -15 12 -18 24
-29 28 -26 10 10 96 10 96 0 0 -6 3 -8 6 -5 3 4 20 1 37 -6 42 -17 133 -12
232 13 17 4 49 4 72 1 23 -3 97 -5 163 -5 75 1 136 -3 158 -10 45 -16 58 -11
71 26 5 16 14 30 18 30 46 7 63 7 58 0 -8 -14 34 -60 55 -58 15 1 18 6 13 27
-3 14 -10 30 -14 36 -10 12 49 12 89 0 18 -6 22 -4 23 16 1 29 6 59 12 64 2 3
17 6 33 8 110 14 126 19 134 40 5 12 9 15 9 6 1 -10 6 -8 16 7 8 12 28 24 45
28 19 4 37 19 50 41 12 19 25 34 28 35 4 1 19 2 35 3 17 2 40 17 62 42 19 21
35 35 35 29 0 -5 10 6 21 25 20 33 55 72 61 69 10 -7 48 15 48 27 0 8 4 13 8
10 11 -6 52 30 53 47 1 7 1 17 0 24 -1 6 3 14 8 18 7 4 7 15 1 30 -5 14 -7 25
-4 25 13 0 -66 99 -125 156 -19 18 -42 47 -50 65 -11 21 -28 36 -49 43 -18 7
-30 15 -26 19 4 4 2 7 -5 7 -8 0 -30 17 -50 39 -20 21 -45 43 -56 49 -44 21
-115 -9 -115 -49 0 -21 -36 -49 -63 -49 -10 0 -15 -4 -12 -10 3 -5 -1 -10 -9
-10 -9 0 -16 -4 -16 -9 0 -5 -9 -11 -20 -14 -11 -3 -20 0 -20 6 0 22 -21 -9
-26 -39 -3 -16 -16 -40 -29 -53 -20 -20 -35 -25 -87 -27 -35 -1 -66 -3 -70 -3
-5 -1 -20 -15 -35 -31 -17 -20 -33 -28 -42 -24 -39 15 -50 12 -59 -16 -9 -25
-52 -62 -52 -44 0 3 -8 -3 -17 -15 -12 -14 -34 -24 -63 -27 -68 -8 -328 -8
-385 1 -27 4 -56 7 -62 8 -7 0 -13 4 -13 9 0 4 -6 8 -13 8 -28 0 -54 49 -60
111 -1 10 -7 15 -16 11 -10 -4 -12 -1 -6 8 6 9 4 11 -4 5 -7 -4 -10 -17 -7
-29 5 -22 -15 -48 -44 -54 -18 -4 -70 18 -70 30 0 27 -33 43 -109 53 -43 6
-43 6 -49 63 -6 63 -22 84 -69 87 -63 3 -83 14 -90 46 -3 16 -15 35 -27 41
-26 13 -52 40 -51 53 0 6 6 19 12 30 18 33 -6 76 -46 82 -45 6 -59 77 -50 258
2 34 -5 108 -11 125 -2 3 -2 8 -1 13 0 4 -3 7 -7 7 -12 0 -6 211 6 219 11 7
11 11 16 136 4 130 2 122 34 131 41 11 41 11 52 13 7 1 7 7 1 19 -11 21 7 64
39 92 16 13 23 31 35 80 11 41 36 47 62 17 10 -11 13 -17 6 -14 -7 4 -10 1 -9
-8 2 -17 56 -50 56 -35 0 4 9 6 20 3 17 -5 20 0 20 31 0 20 -5 36 -11 36 -5 0
-7 6 -3 13 6 10 4 10 -7 0 -18 -18 -30 -16 -22 4 4 10 2 14 -4 10 -5 -4 -15 4
-21 17 -9 20 -8 26 6 32 41 17 134 24 168 13 33 -11 57 12 56 52 0 18 -6 35
-11 37 -14 5 5 43 28 57 9 6 43 10 76 11 70 1 115 12 115 27 0 6 3 8 6 4 3 -3
18 5 32 19 15 13 31 25 37 25 46 6 277 10 327 6 35 -4 72 -28 63 -41 -3 -3 0
-2 7 3 7 7 18 6 32 -1 20 -11 20 -10 6 8 -14 18 -14 18 6 1 11 -9 24 -14 28
-10 4 5 6 -1 4 -12 -2 -12 3 -21 12 -21 8 -1 20 -3 25 -4 6 -2 26 -4 45 -5 19
-1 42 -3 50 -4 19 -1 61 -38 83 -74 11 -17 22 -25 30 -20 20 13 31 10 65 -19
18 -16 37 -26 42 -23 4 3 11 -6 14 -20 4 -14 11 -25 17 -25 6 0 8 -4 5 -8 -3
-5 1 -9 9 -9 8 0 11 5 8 10 -10 16 46 -2 81 -26 33 -23 49 -43 52 -66 5 -28
44 -44 104 -44 42 1 110 23 110 36 0 16 55 77 69 77 6 0 11 6 11 14 0 19 23
36 57 42 15 2 36 15 46 27 10 12 24 29 30 37 7 8 13 18 15 23 8 28 54 107 63
107 7 0 6 6 -2 17 -8 9 -13 17 -11 17 2 1 -2 15 -8 31 -14 35 -18 53 -19 78
-1 10 -5 16 -10 13 -17 -11 -54 33 -53 64 0 16 -4 30 -9 30 -6 0 -27 8 -48 18
-32 16 -40 16 -47 5 -8 -12 -13 -11 -31 2 -18 12 -21 23 -19 58 2 23 4 47 6
52 8 31 -1 45 -28 45 -25 0 -28 -3 -26 -30 1 -16 -2 -27 -7 -24 -5 3 -9 0 -9
-6 0 -8 -6 -8 -20 0 -11 6 -20 17 -20 24 0 24 -31 40 -73 37 -54 -3 -95 15
-113 50 -13 26 -38 36 -76 30 -4 0 -18 3 -31 8 -18 7 -24 16 -22 35 2 14 -2
29 -8 33 -6 4 -72 8 -147 9 -74 0 -141 2 -148 3 -11 1 -38 56 -35 71 14 66 14
69 -4 79 -11 5 -23 7 -29 3z m-183 -50 c-7 -2 -18 1 -23 6 -8 8 -4 9 13 5 13
-4 18 -8 10 -11z m33 -12 c-6 -6 -10 -3 -10 10 0 13 4 16 10 10 7 -7 7 -13 0
-20z m-64 -2 c0 -3 -9 -6 -20 -5 -11 1 -20 5 -20 9 0 3 9 6 20 5 11 -1 20 -5
20 -9z m-734 -990 c4 -6 3 -8 -3 -5 -6 4 -16 0 -23 -8 -7 -8 -17 -15 -22 -15
-6 0 0 9 13 20 29 23 26 23 35 8z m-986 -479 c0 -5 5 -7 10 -4 6 3 10 2 10 -4
0 -5 -5 -13 -10 -16 -6 -4 -8 -10 -5 -15 3 -4 -3 -14 -12 -21 -12 -10 -14 -10
-9 -1 4 7 2 12 -5 12 -7 0 -4 7 7 16 18 15 18 15 0 10 -15 -5 -17 -4 -8 7 7 8
9 17 5 20 -3 4 -1 7 5 7 7 0 12 -5 12 -11z"/>
<path d="M1390 5786 c0 -2 7 -7 16 -10 8 -3 12 -2 9 4 -6 10 -25 14 -25 6z"/>
<path d="M1783 5782 c-13 -2 -23 -8 -23 -13 0 -6 -4 -7 -10 -4 -21 13 -9 -13
14 -30 18 -14 21 -21 13 -30 -9 -10 -17 -9 -34 2 -12 8 -28 11 -34 7 -8 -4 -9
-3 -5 4 4 7 2 12 -4 12 -7 0 -10 7 -6 15 4 12 2 13 -13 6 -10 -6 -22 -7 -26
-3 -11 11 -195 11 -195 0 0 -7 -5 -6 -14 1 -11 9 -16 9 -22 -1 -4 -7 -4 -10 1
-6 4 4 14 3 21 -3 8 -6 14 -7 18 0 8 12 36 3 36 -11 0 -6 -6 -5 -15 2 -12 10
-15 10 -15 -2 0 -7 -9 -14 -19 -14 -11 0 -17 5 -13 11 3 5 -2 4 -11 -4 -14
-11 -17 -11 -17 0 0 8 -6 6 -16 -7 -8 -10 -12 -12 -8 -5 6 13 -49 -20 -66 -39
-25 -26 -65 -34 -200 -37 -168 -4 -196 -6 -207 -17 -4 -4 -3 -7 2 -6 46 10 42
-12 -10 -59 -22 -20 -45 -43 -52 -51 -6 -8 -15 -15 -20 -16 -4 0 -26 -4 -48
-9 -22 -5 -44 -8 -49 -6 -25 6 -66 -23 -79 -58 -19 -45 -75 -90 -122 -98 -39
-6 -44 -11 -51 -51 -3 -15 -15 -35 -27 -45 -53 -43 -93 -87 -90 -98 2 -5 -2
-9 -8 -9 -5 0 -21 -24 -34 -54 -20 -46 -29 -55 -57 -61 -18 -4 -43 -19 -56
-33 -14 -16 -22 -20 -23 -11 0 8 -4 6 -9 -6 -13 -30 -12 -42 5 -59 12 -11 14
-25 9 -51 -3 -19 -10 -35 -14 -35 -5 0 -11 -13 -15 -30 -4 -16 -11 -30 -16
-30 -5 0 -15 -12 -22 -27 -6 -16 -15 -30 -18 -33 -6 -4 -14 -47 -24 -128 -3
-27 -1 -25 -42 -46 -37 -19 -35 -11 -35 -181 1 -60 5 -126 9 -144 5 -19 6 -59
3 -89 -4 -29 -3 -55 1 -57 3 -3 4 -21 2 -42 -5 -35 -7 -114 -4 -156 1 -11 6
-15 13 -11 8 5 9 2 5 -9 -3 -10 -3 -17 1 -17 4 0 8 -9 9 -20 1 -11 -2 -18 -7
-15 -6 3 -7 -1 -4 -9 3 -9 1 -16 -5 -16 -8 0 -9 -6 -2 -18 6 -11 12 -31 15
-47 3 -15 11 -35 19 -44 23 -26 25 -44 5 -65 -26 -28 -23 -54 7 -62 13 -3 24
-9 23 -13 -4 -15 15 -51 27 -51 23 0 39 -41 41 -105 1 -33 3 -68 3 -77 1 -12
9 -18 25 -18 37 0 56 -10 56 -31 0 -28 22 -71 53 -103 18 -20 27 -40 27 -63 0
-31 31 -77 53 -80 20 -2 107 -55 109 -66 0 -7 2 -17 2 -24 1 -6 12 -23 24 -36
l23 -25 -21 -15 c-30 -21 -12 -29 64 -32 60 -2 106 -19 106 -40 0 -6 16 -17
36 -24 23 -8 40 -24 50 -45 14 -29 54 -48 54 -26 0 5 19 2 43 -6 23 -9 53 -18
67 -20 14 -3 32 -13 40 -23 9 -9 28 -26 43 -36 27 -17 72 -86 47 -70 -8 5 -11
3 -8 -6 5 -16 47 -19 50 -4 11 48 66 52 198 14 25 -7 49 -12 53 -11 34 9 55 6
85 -8 31 -15 41 -16 101 -3 83 18 145 18 201 2 54 -15 294 -18 320 -4 18 10
20 13 20 34 0 9 19 18 60 29 8 2 30 4 47 5 18 1 33 5 33 9 0 5 3 7 8 7 29 -5
51 5 62 27 12 22 19 25 48 19 19 -4 39 -2 47 5 7 6 26 13 42 15 15 2 30 4 33
4 3 1 14 14 23 31 10 16 25 30 33 30 18 0 53 38 54 58 0 7 5 10 10 7 6 -3 10
1 10 10 0 9 5 13 10 10 6 -3 16 -3 23 2 6 4 30 9 52 11 65 4 65 4 55 21 -11
22 6 51 30 51 18 0 64 35 71 55 2 5 26 17 53 26 27 9 60 30 73 45 14 16 29 28
34 26 5 -1 9 3 9 10 0 8 6 6 17 -4 13 -14 14 -22 6 -41 -9 -19 -8 -28 5 -40
29 -30 16 -171 -22 -225 -34 -50 -34 -94 1 -122 18 -14 36 -19 55 -16 15 2 28
1 28 -4 0 -4 16 -4 35 0 19 4 37 4 40 0 3 -5 19 -5 35 0 19 5 30 5 30 -1 0 -6
5 -7 12 -3 13 8 167 8 175 0 3 -3 15 -1 27 3 12 5 33 3 51 -5 17 -7 24 -13 17
-14 -7 0 -10 -4 -7 -10 8 -12 -39 -24 -89 -23 -21 1 -36 -1 -33 -4 10 -10 107
-9 111 2 2 5 5 2 5 -8 1 -10 5 -16 10 -13 5 4 11 1 13 -6 7 -21 48 26 43 50
-2 12 -1 21 3 20 16 -4 51 14 58 30 10 23 14 45 7 38 -3 -3 -12 2 -19 12 -7 9
-9 19 -4 22 5 3 11 25 14 50 3 25 10 46 15 48 6 2 9 8 5 13 -3 5 -1 9 5 9 5 0
10 26 10 58 1 57 8 175 14 222 4 41 28 90 43 90 8 0 14 6 14 13 0 19 57 50 63
35 4 -10 6 -10 6 0 1 7 6 10 11 7 6 -4 10 5 8 24 -1 17 -6 31 -11 31 -4 0 -6
4 -3 9 3 5 -2 12 -11 15 -10 4 -13 10 -8 14 13 9 13 35 0 44 -6 5 -5 8 4 8 10
0 11 3 2 14 -9 11 -9 16 0 21 8 6 7 10 -2 16 -9 6 -10 9 -2 9 8 0 7 9 -4 30
-13 28 -13 35 1 69 8 21 12 41 9 45 -4 3 -1 6 7 6 10 0 10 3 1 14 -10 11 -8
22 5 48 14 27 18 63 20 198 1 91 3 172 6 181 7 31 33 58 58 63 40 7 58 16 65
33 3 9 1 20 -5 23 -8 5 -7 9 3 13 11 4 14 -2 13 -24 -1 -16 1 -29 5 -29 18 0
29 -63 26 -148 -2 -51 0 -95 3 -97 4 -2 5 -20 4 -39 -3 -32 0 -36 20 -36 12 0
26 -3 30 -7 8 -8 13 -9 44 -12 42 -3 50 -23 57 -151 2 -36 8 -76 13 -90 5 -14
8 -32 6 -40 -2 -8 -7 -31 -11 -50 -10 -41 -9 -128 1 -152 5 -10 18 -16 36 -16
16 1 27 4 25 8 -2 4 2 7 10 7 8 0 13 -3 10 -5 -3 -3 5 -16 17 -30 15 -15 23
-37 24 -63 0 -22 8 -47 18 -58 15 -16 17 -36 15 -128 -3 -113 4 -155 24 -148
16 6 29 -4 46 -37 8 -15 10 -32 5 -40 -24 -37 -5 -75 27 -55 14 9 24 9 37 1
14 -9 17 -28 18 -109 2 -82 5 -101 20 -112 10 -8 22 -9 28 -4 11 9 17 11 37
11 5 0 8 4 5 8 -2 4 12 19 32 32 34 24 43 25 176 26 166 0 174 -1 182 -31 6
-24 22 -35 64 -42 70 -13 82 -3 84 71 1 31 7 61 14 68 10 10 42 17 92 20 34 2
39 18 35 116 -2 61 1 106 9 122 7 14 11 50 9 80 -2 30 -4 64 -5 75 -3 57 2 67
40 82 25 9 38 21 39 35 3 30 22 49 41 39 10 -6 21 -4 30 6 13 12 16 50 16 201
l1 186 35 10 c36 10 52 24 44 38 -3 4 8 14 24 22 37 19 55 61 43 102 -5 19 -5
37 1 49 6 9 11 71 12 137 2 122 7 137 46 138 8 0 25 12 38 27 21 24 54 41 50
25 -1 -4 9 -27 22 -52 20 -38 24 -61 25 -145 1 -55 6 -112 13 -127 8 -20 8
-28 -1 -31 -14 -5 -13 -157 1 -166 12 -8 44 -71 36 -71 -3 0 1 -11 10 -25 19
-29 21 -76 4 -94 -7 -8 -8 -11 -3 -8 6 3 11 -3 11 -13 0 -10 -5 -16 -11 -14
-5 3 -1 -2 10 -11 16 -13 17 -17 6 -24 -7 -5 -9 -10 -3 -12 6 -2 -1 -12 -15
-23 -25 -18 -25 -18 -14 2 8 15 7 21 -2 25 -24 9 -13 -42 12 -60 22 -15 24
-15 18 0 -5 14 -3 15 18 5 14 -6 25 -17 25 -25 0 -7 4 -13 9 -13 16 0 24 -66
26 -215 1 -95 6 -165 15 -190 14 -41 17 -165 5 -184 -3 -6 -1 -11 4 -11 6 0
11 -7 11 -15 0 -8 5 -15 10 -15 6 0 10 -5 10 -11 0 -6 14 -27 30 -46 30 -34
39 -63 19 -63 -5 0 -7 -5 -4 -10 4 -7 21 -8 43 -4 21 4 98 8 172 10 332 7 390
21 418 100 13 35 13 45 1 72 -7 17 -17 28 -21 26 -4 -3 -13 8 -20 23 -7 15
-16 31 -21 34 -5 3 -9 12 -10 20 -2 8 -7 21 -12 29 -5 8 -10 28 -11 45 -1 16
-3 30 -4 30 -2 0 -4 37 -5 81 -1 45 -6 88 -11 95 -12 19 -14 198 -3 205 5 3 9
18 9 35 0 25 -8 34 -31 31 -15 -2 -18 49 -5 92 8 25 11 46 7 46 -4 0 -8 7 -8
15 0 8 3 15 7 15 11 0 7 60 -4 60 -6 1 -1 9 11 19 19 16 20 20 7 25 -10 4 -13
2 -8 -6 4 -7 3 -8 -5 -4 -6 4 -9 12 -6 17 4 5 -1 9 -10 9 -10 0 -13 5 -9 12 5
8 2 9 -9 5 -9 -3 -16 -3 -15 1 3 12 -25 62 -34 62 -4 0 -8 9 -8 19 0 11 -8 39
-18 63 -14 33 -19 71 -20 165 0 98 -4 129 -20 161 -21 44 -23 88 -4 85 6 -2
14 7 17 20 14 65 9 84 -25 96 -50 17 -62 80 -15 81 6 0 3 5 -5 10 -10 6 -11
10 -2 10 6 0 12 7 12 15 0 8 -6 15 -14 15 -8 0 -18 5 -22 12 -5 7 -3 8 7 3 12
-7 12 -6 1 7 -14 17 -14 108 0 108 10 0 11 30 1 30 -5 0 -19 23 -32 50 -14 28
-28 50 -32 50 -18 0 -24 50 -30 240 -1 58 -8 115 -15 129 -14 26 -8 55 9 44 5
-3 7 -1 3 5 -3 6 -2 13 3 16 6 4 6 18 1 36 -5 17 -6 30 -2 30 4 1 -4 7 -18 15
-14 7 -23 16 -21 20 1 3 -3 20 -10 37 -11 26 -10 35 6 64 10 19 22 34 26 34 4
0 5 17 3 38 -3 20 -6 55 -7 77 -3 43 -12 65 -28 65 -6 0 -7 -6 -3 -12 6 -10 5
-10 -7 -1 -9 7 -21 31 -28 54 -7 22 -15 38 -18 35 -3 -3 -16 6 -29 21 l-23 27
-153 -2 c-227 -4 -327 -4 -386 0 -79 6 -84 -1 -86 -121 -1 -88 -4 -105 -20
-116 -16 -12 -22 -12 -39 0 -27 19 -44 9 -68 -39 -25 -50 -31 -74 -20 -81 5
-2 3 -21 -4 -41 -7 -21 -9 -50 -5 -68 7 -32 6 -42 -5 -136 -5 -44 -13 -61 -39
-85 -33 -31 -43 -35 -63 -22 -8 5 -13 4 -13 -3 0 -6 -7 -10 -16 -8 -10 2 -18
-5 -19 -14 -2 -10 1 -18 6 -18 6 0 7 -5 4 -10 -12 -20 -15 -61 -6 -79 7 -12 7
-21 0 -28 -6 -6 -11 -66 -13 -136 -2 -124 -2 -125 -31 -155 -33 -32 -71 -46
-79 -28 -3 7 -5 6 -5 -3 -1 -11 -6 -10 -23 5 l-21 19 16 -26 c10 -14 14 -29
10 -33 -9 -8 -14 -29 -19 -81 -5 -39 -5 -67 -5 -209 1 -61 -3 -73 -29 -110
-26 -34 -36 -41 -70 -43 -22 -1 -40 1 -40 5 -1 24 -41 55 -76 59 -21 2 -52 5
-67 7 -47 6 -52 19 -53 136 0 100 -2 111 -22 128 -27 24 -27 25 1 56 20 21 23
34 21 82 -2 62 -14 77 -52 67 -28 -7 -101 15 -104 31 0 6 -2 54 -3 106 -2 75
-7 102 -23 130 -17 29 -19 38 -8 52 7 10 15 16 17 14 2 -3 5 7 5 20 2 20 -1
23 -12 13 -12 -10 -13 -8 -7 7 3 10 10 21 14 24 7 5 12 41 10 71 -1 17 -2 18
-83 22 -31 1 -60 6 -64 10 -12 12 -15 94 -12 349 0 57 -4 103 -10 110 -6 8
-30 13 -61 12 -70 -3 -84 11 -87 81 -1 31 -7 62 -12 67 -15 15 -580 17 -600 2
-10 -7 -15 -31 -16 -72 -1 -52 -5 -65 -30 -91 -15 -16 -26 -34 -22 -39 3 -5
-6 -20 -19 -32 -14 -13 -25 -29 -25 -35 0 -7 -9 -20 -21 -31 -18 -16 -20 -26
-15 -64 4 -25 8 -68 10 -96 2 -28 8 -60 14 -70 11 -22 -3 -67 -34 -102 -18
-21 -26 -72 -11 -72 4 0 5 -4 2 -10 -3 -5 -2 -10 4 -10 16 0 18 -33 3 -80 -7
-25 -14 -99 -15 -165 -2 -66 -6 -126 -10 -132 -5 -7 -17 -13 -28 -13 -25 0
-38 -35 -44 -116 -2 -35 -6 -68 -10 -73 -3 -5 -1 -12 4 -16 11 -6 10 -45 -1
-45 -4 0 -5 -9 -3 -20 2 -11 -1 -22 -6 -25 -5 -4 -7 -11 -4 -16 4 -5 3 -9 -2
-9 -18 0 -30 16 -28 37 1 14 -3 19 -12 16 -14 -6 -16 -17 -7 -50 4 -13 9 -21
13 -18 13 7 3 -125 -10 -141 -10 -12 -13 -60 -12 -187 2 -164 1 -174 -23 -219
-13 -26 -24 -55 -24 -63 0 -9 -4 -13 -10 -10 -5 3 -10 2 -10 -3 0 -5 -18 -7
-39 -5 -45 4 -57 -7 -40 -39 6 -12 13 -35 14 -52 2 -19 13 -38 30 -51 23 -19
26 -28 24 -74 -2 -28 -9 -61 -17 -72 -13 -19 -15 -20 -34 -3 -12 12 -22 15
-26 8 -14 -21 -48 -31 -99 -29 -43 1 -58 7 -82 29 -16 16 -34 25 -39 22 -6 -4
-14 -1 -18 5 -4 8 -3 9 4 5 7 -4 12 -1 12 9 0 9 5 13 10 10 6 -4 9 -3 8 2 -1
4 2 19 6 32 5 15 4 27 -4 35 -10 8 -12 6 -7 -11 3 -13 1 -26 -4 -29 -5 -3 -9
-2 -8 3 4 20 -2 24 -18 12 -14 -12 -16 -12 -9 1 5 11 4 10 -6 -1 -12 -15 -17
-13 -45 20 -18 20 -42 52 -55 71 -21 31 -29 35 -68 35 -25 1 -50 4 -57 8 -6 4
-14 3 -18 -3 -3 -5 -12 -10 -20 -10 -10 0 -12 7 -5 31 9 31 3 38 -32 36 -21 0
-23 -8 -5 -26 10 -11 10 -13 0 -7 -7 4 -13 3 -13 -3 0 -17 -30 -40 -48 -36
-13 2 -18 -3 -18 -20 0 -17 5 -22 23 -21 13 0 23 6 23 11 0 6 5 2 11 -8 9 -14
7 -21 -8 -32 -15 -12 -20 -12 -30 1 -14 19 -33 10 -33 -14 -1 -28 -44 -72 -76
-78 -33 -6 -41 -13 -58 -45 -6 -12 -22 -26 -36 -30 -117 -35 -140 -43 -140
-48 0 -9 -63 -46 -74 -43 -17 5 -76 -20 -76 -33 0 -37 -47 -45 -295 -48 -134
-2 -195 7 -215 31 -16 18 -80 52 -100 52 -6 0 -9 4 -6 9 3 5 -8 14 -24 21 -17
7 -33 17 -36 22 -4 6 3 5 15 -1 16 -9 21 -9 19 0 -2 6 7 12 19 14 51 4 27 10
-50 12 -91 3 -147 10 -148 21 -3 31 -10 47 -20 51 -26 8 -58 50 -54 69 2 14
-1 19 -13 17 -9 -2 -20 -4 -24 -4 -3 -1 -5 -9 -3 -18 3 -19 -12 -43 -25 -43
-4 0 -15 16 -25 35 -11 25 -25 37 -45 42 -32 6 -51 40 -29 54 7 4 17 5 21 3 4
-3 8 1 8 8 0 9 3 9 10 -2 7 -11 10 -11 10 -2 0 7 5 10 12 6 7 -4 8 -3 4 4 -4
7 -15 12 -25 12 -10 0 -34 18 -54 40 -19 22 -42 40 -50 40 -9 0 -19 15 -24 38
-5 20 -15 37 -22 37 -7 0 -19 8 -26 19 -12 16 -12 21 6 35 14 11 20 27 19 51
-1 50 -1 78 1 87 5 31 -3 41 -38 45 -21 3 -41 1 -44 -4 -9 -14 -27 14 -34 52
-3 18 -9 38 -13 44 -4 6 -7 57 -8 113 0 86 2 106 18 122 12 13 25 18 40 14 64
-15 113 2 88 32 -7 8 -19 15 -26 15 -14 0 -19 24 -15 65 2 23 23 38 32 24 13
-22 22 29 24 141 2 63 5 122 7 130 5 20 26 56 30 52 2 -2 16 1 31 7 16 6 33
11 39 11 6 0 8 10 4 23 -4 18 0 27 19 37 14 7 25 20 26 29 1 22 7 52 11 56 2
2 16 6 31 9 46 8 68 17 62 25 -2 5 4 16 15 26 11 10 20 13 20 7 0 -16 59 4 87
30 12 12 23 27 23 35 0 13 10 16 46 14 12 -1 28 4 35 11 23 21 31 22 137 15
35 -2 65 0 68 5 3 4 9 6 12 4 4 -2 7 10 6 28 -1 18 3 33 10 34 84 10 207 11
232 1 41 -17 53 -19 60 -8 4 6 11 6 19 -1 8 -7 18 -9 23 -6 5 3 17 -3 27 -14
10 -11 22 -17 26 -14 5 3 9 -2 9 -10 0 -9 9 -16 20 -17 87 -4 122 -6 134 -7 8
-1 19 -15 25 -32 5 -16 16 -31 23 -31 44 -4 68 -18 68 -40 0 -10 6 -19 14 -19
8 0 16 -5 18 -11 2 -6 24 -12 50 -14 84 -7 103 -14 131 -47 16 -18 44 -50 63
-72 19 -21 34 -41 34 -45 0 -4 10 -7 23 -6 12 2 32 -3 43 -11 12 -7 25 -10 28
-7 7 7 29 13 54 15 6 1 12 4 12 8 0 4 11 5 24 3 26 -5 35 4 42 45 3 15 9 29
15 30 5 2 9 12 9 23 0 10 4 18 9 16 5 -1 16 6 23 15 7 9 25 19 41 22 47 8 68
17 66 29 -3 26 2 34 34 46 24 10 38 24 46 47 7 19 19 35 27 35 44 4 47 8 46
64 -1 43 -22 82 -36 68 -3 -4 -6 -1 -6 5 0 7 -3 11 -7 11 -5 -1 -10 -1 -13 1
-3 1 -16 3 -29 6 -31 6 -51 22 -51 41 0 24 -42 92 -54 87 -6 -2 -36 9 -66 24
-49 24 -55 30 -56 59 -1 18 -7 39 -13 47 -7 8 -10 20 -7 25 4 5 1 13 -5 17 -8
4 -9 3 -5 -4 4 -7 2 -12 -3 -12 -6 0 -11 7 -11 15 0 8 -6 12 -14 9 -8 -3 -17
-1 -20 4 -3 5 -17 7 -31 4 -16 -3 -33 2 -45 13 -11 10 -28 15 -40 12 -21 -5
-50 15 -50 36 0 18 -56 47 -68 35 -19 -19 -48 -15 -82 14 -19 16 -41 33 -47
39 -7 5 -30 9 -50 9 -21 0 -77 1 -125 2 -86 3 -87 3 -132 46 -25 23 -49 42
-54 42 -6 0 -12 7 -15 15 -4 8 -15 12 -27 10 -11 -2 -18 0 -15 6 4 5 -1 9 -9
9 -9 0 -16 5 -16 11 0 5 -4 8 -9 5 -5 -4 -11 -3 -13 1 -1 5 -13 7 -25 5z
m-175 -48 c4 -4 -1 -4 -12 0 -13 4 -17 2 -13 -8 6 -16 -16 -40 -26 -29 -4 3
-7 16 -8 27 0 21 -1 21 -9 1 -8 -19 -9 -19 -9 2 -1 19 3 22 35 19 19 -2 38 -7
42 -12z m48 -3 c2 -7 0 -7 -3 -1 -3 7 -9 8 -17 1 -9 -8 -13 -7 -13 3 0 17 30
14 33 -3z m34 -12 c0 -6 -4 -7 -10 -4 -5 3 -10 11 -10 16 0 6 5 7 10 4 6 -3
10 -11 10 -16z m140 17 c0 -2 -7 -7 -16 -10 -8 -3 -12 -2 -9 4 6 10 25 14 25
6z m2239 -1959 c-10 -22 -48 -33 -45 -12 3 21 18 35 36 35 17 0 18 -3 9 -23z
m-1625 -315 c3 -5 -1 -9 -9 -9 -8 0 -12 4 -9 9 3 4 7 8 9 8 2 0 6 -4 9 -8z
m1950 -644 c-3 -4 -9 -8 -15 -8 -5 0 -9 4 -9 8 0 5 7 9 15 9 8 0 12 -4 9 -9z"/>
<path d="M1920 5773 c-11 -8 -24 -12 -29 -8 -5 3 -13 0 -17 -7 -4 -7 -3 -10 1
-5 5 4 18 -1 29 -10 12 -10 18 -14 13 -9 -4 6 6 15 23 22 16 7 30 17 30 22 0
13 -28 10 -50 -5z"/>
<path d="M1717 5754 c-11 -11 -8 -26 3 -19 6 3 10 1 10 -6 0 -7 3 -10 6 -6 3
3 2 13 -3 22 -5 8 -12 12 -16 9z"/>
<path d="M6210 5530 c0 -5 5 -10 10 -10 6 0 10 5 10 10 0 6 -4 10 -10 10 -5 0
-10 -4 -10 -10z"/>
<path d="M6199 5512 c7 -12 17 -20 22 -16 6 3 9 7 7 8 -2 1 -12 8 -22 16 -18
14 -19 14 -7 -8z"/>
<path d="M9570 5299 c0 -5 5 -7 10 -4 6 3 10 8 10 11 0 2 -4 4 -10 4 -5 0 -10
-5 -10 -11z"/>
<path d="M6355 4559 c-17 -17 -17 -19 -2 -14 13 6 17 2 17 -16 0 -18 3 -20 9
-10 5 8 7 20 4 28 -3 7 0 13 7 13 6 0 8 5 5 10 -9 14 -17 12 -40 -11z"/>
<path d="M6526 3609 c2 -4 -2 -9 -8 -11 -8 -3 -4 -9 9 -17 21 -11 23 -9 21 12
-1 13 -8 24 -15 24 -6 0 -10 -4 -7 -8z"/>
<path d="M5806 3351 c-3 -5 2 -15 12 -22 15 -12 16 -12 5 2 -7 9 -10 19 -6 22
3 4 4 7 0 7 -3 0 -8 -4 -11 -9z"/>
<path d="M6704 2732 c3 -5 0 -12 -6 -15 -10 -4 -10 -7 -1 -16 7 -6 11 -8 8 -5
-3 4 0 13 6 20 7 8 6 14 -2 20 -7 4 -9 3 -5 -4z"/>
<path d="M3160 2500 c0 -5 -6 -7 -14 -4 -8 3 -16 1 -20 -4 -3 -5 5 -8 16 -7
19 1 41 25 24 25 -3 0 -6 -4 -6 -10z"/>
<path d="M3189 2492 c-13 -15 -12 -16 3 -4 13 10 17 10 21 0 4 -9 6 -9 6 -1 2
20 -16 24 -30 5z"/>
<path d="M3343 2494 c0 -10 4 -11 13 -3 8 7 14 6 17 -1 3 -6 5 -6 3 1 -3 17
-33 20 -33 3z"/>
<path d="M3070 2495 c0 -7 30 -13 34 -7 3 4 -4 9 -15 9 -10 1 -19 0 -19 -2z"/>
<path d="M3232 2495 c8 -8 58 -13 58 -6 0 4 -14 8 -31 9 -17 0 -29 -1 -27 -3z"/>
<path d="M3306 2488 c3 -5 10 -6 15 -3 13 9 11 12 -6 12 -8 0 -12 -4 -9 -9z"/>
<path d="M2354 2479 c-3 -6 0 -15 7 -20 14 -8 32 9 23 23 -7 11 -22 10 -30 -3z"/>
<path d="M4683 2467 c-3 -4 -11 -6 -19 -3 -7 3 -16 0 -20 -7 -4 -7 -4 -9 1 -5
4 4 16 3 26 -2 12 -7 20 -7 24 0 5 8 11 8 20 0 10 -8 14 -7 17 2 4 10 8 11 20
1 8 -7 17 -11 19 -9 10 8 79 14 74 6 -3 -5 7 -5 24 0 19 5 33 4 40 -3 8 -8 11
-8 11 2 0 7 4 10 9 6 5 -3 13 0 17 6 4 7 3 9 -4 5 -5 -3 -13 0 -15 6 -4 10 -6
9 -6 -1 -1 -10 -4 -11 -15 -2 -9 8 -16 8 -20 2 -4 -7 -15 -7 -31 -1 -14 5 -27
5 -30 0 -3 -4 -22 -6 -43 -3 -70 9 -93 9 -99 0z"/>
<path d="M2210 2462 c0 -5 7 -9 15 -9 8 0 12 4 9 9 -3 4 -9 8 -15 8 -5 0 -9
-4 -9 -8z"/>
</g>
</svg>
